<?xml version="1.0" encoding="utf-8"?>
<!-- Uploaded to: SVG Repo, www.svgrepo.com, Generator: SVG Repo Mixer Tools -->
<svg fill="#ffffff" width="800px" height="800px" viewBox="0 0 32 32" version="1.1" xmlns="http://www.w3.org/2000/svg">
<title>power-switch</title>
<path d="M22.555 5.41c-0.172-0.095-0.376-0.15-0.594-0.15-0.69 0-1.25 0.56-1.25 1.25 0 0.471 0.261 0.882 0.646 1.094l0.006 0.003c3.533 1.944 5.887 5.642 5.887 9.89 0 6.213-5.037 11.25-11.25 11.25s-11.25-5.037-11.25-11.25c0-4.233 2.338-7.92 5.792-9.84l0.057-0.029c0.39-0.217 0.649-0.626 0.649-1.096 0-0.69-0.559-1.25-1.249-1.25-0.22 0-0.427 0.057-0.607 0.157l0.006-0.003c-4.291 2.383-7.147 6.888-7.147 12.060 0 7.593 6.156 13.749 13.749 13.749s13.749-6.156 13.749-13.749c0-5.192-2.877-9.711-7.124-12.051l-0.071-0.036zM15.95 15.279c0.69 0 1.25-0.56 1.25-1.25v0-12.029c0-0.69-0.56-1.25-1.25-1.25s-1.25 0.56-1.25 1.25v0 12.029c0 0.69 0.56 1.25 1.25 1.25v0z"></path>
</svg>
