<svg xmlns="http://www.w3.org/2000/svg" viewBox="0 0 64 64" id="Led"><rect width="2" height="10" x="27" y="48" fill="#d85b53" class="color000000 svgShape"></rect><rect width="2" height="13.651" x="35" y="48.349" fill="#d85b53" class="color000000 svgShape"></rect><rect width="24" height="4" x="20" y="43" rx="1" fill="#d85b53" class="color000000 svgShape"></rect><path d="M30.84,35.99a1,1,0,0,1-.73-.54L29.38,34H29v7h6V34H33.41l-1.7,1.71A1.032,1.032,0,0,1,30.84,35.99Z" fill="#d85b53" class="color000000 svgShape"></path><path d="M27,33a1,1,0,0,1,1-1h2a.977.977,0,0,1,.89.55l.38.76,1.02-1.02A1.033,1.033,0,0,1,33,32h3a1,1,0,0,1,1,1v8h4V24a9,9,0,0,0-18,0V41h4Zm-3-9a8.009,8.009,0,0,1,8-8v2a6.006,6.006,0,0,0-6,6Z" fill="#d85b53" class="color000000 svgShape"></path><rect width="2" height="6" x="31" y="2" fill="#d85b53" class="color000000 svgShape"></rect><rect width="2" height="6" x="11.908" y="9.908" transform="rotate(-45.003 12.908 12.908)" fill="#d85b53" class="color000000 svgShape"></rect><rect width="6" height="2" x="2" y="31" fill="#d85b53" class="color000000 svgShape"></rect><rect width="6" height="2" x="56" y="31" fill="#d85b53" class="color000000 svgShape"></rect><rect width="6" height="2" x="48.092" y="11.908" transform="rotate(-45 51.092 12.908)" fill="#d85b53" class="color000000 svgShape"></rect></svg>